/* XPM */
static char *xpm_[] = {
/* columns rows colors chars-per-pixel */
"32 32 9 1 ",
"  c #8D0313",
". c #95DF7B",
"X c #96DF7C",
"o c #96E07C",
"O c #97E17D",
"+ c #99E27F",
"@ c #99E37F",
"# c #9AE380",
"$ c #9AE480",
/* pixels */
"OOO+$++@$$$$$$$$$@$$$$@+O$$$$@$$",
"O.O++O$$@@@@$$$$$@$$@@O$$$$$$@$$",
".O+OO$$$O+O$        $$$$$$$$@O+@",
"XO+OO$$OO+$           $$$@@@++@$",
"OO@$O$$+$@     O@      @$$@O@@$$",
"O+$$+OO@@     @$$@     @$@+O$@+$",
"@@$@OO$$$    +$$$$@     $$@+$OO$",
"OO$O++$$     O$@$@+     $@+O$@O+",
"oX$++@$$    OO++@+OO    $+@O++OO",
".X+O$$$$    o+++$OO+     O$$$++$",
".o++O$$     OO@+Oo$$     $$$++O$",
".O$O$$$     O+$OO@$$     O$OO+$$",
".@+@$$$     $$oO+$$$     O@O@$$O",
"$$$$$$@     +@Oo+$@+     +O+@$O+",
"O+$+++O     OOO+$@+O     $$$$$@+",
"+.O+OOO     O@$$++O+     $$$$$$@",
"OOo+OOO     O+@O+O@@     ++$$$$$",
"+..O@OO     OO++O+@@     OO@@$@+",
"+O+@$$@     @O@$$$$@     OO$O@+O",
"+X$$$$+     +OO$$$$$     $$O+OO@",
"++$$@+O     @O$$$$$$     $$$@OO.",
"O$$$@+O@    $@$$$$$@    $$$$$@O+",
"+$OO$$OO    @@$$$$$@    $$$$$$++",
"@$@$$@@O     $$$$$$     $$$$$$@+",
"$$OO@$OO     @+@$+$    $$@$OO$$$",
"$OOO$$Oo+     OOO+     $$@$$@$@@",
"$$@++...$$     OO     $$$$$$$$+O",
"$$@O..++$$           $$$$$$$$+O+",
"@@+O+OoO++$$        $$$$$$$$$$$O",
"$+@OO+o+O++@#..O@$$$O+$$$$$$$$OO",
"+O$@$$O+OOO++OOO@.OOX+##O$#$..oo",
"O+$$$$@O#O+OOO.+Oo.O$.....+XX..."
};
