/* XPM */
static char *xpm_[] = {
/* columns rows colors chars-per-pixel */
"32 32 9 1 ",
"  c #8D0313",
". c #95DF7B",
"X c #96DF7C",
"o c #96E07C",
"O c #97E17D",
"+ c #99E27F",
"@ c #99E37F",
"# c #9AE380",
"$ c #9AE480",
/* pixels */
"OOO+$++@$$$$$$$$$@$$$$@+O$$$$@$$",
"O.O++O$$@+@@$$$@$+$$@@O$$$$$$@$$",
".O+OO$$$O+O$$+O   $O$$$$$$$$@O+@",
"XO+OO$$OO+$@$     $$$$$$$@@@++@$",
"OO@$O$$+@@$+      $$$$$$$$@O@@$$",
"O+$$+OO@@+        $@$@$@$@+O$@+$",
"@@$@OO$$          @@O@O@$$@+$OO$",
"OO$O++$     O     +O$@+@$@+O$@O+",
"oX$++@$   $$OO    OOoO@$$+@O++OO",
".X+O$$$$$$@OO+    O@O@$$$O$$$++$",
".o++O$$$$@OOOO    $$O+@$$@$$++O$",
".O$O$$$$$@ooO@    @@+O@++O$OO+$$",
".@+@$$$$$$+O+$    $$+@@.OO@O@$$O",
"$$$$$$@@$$O$+@    @++@Ooo+O+@$O+",
"O+$+++O@$$+OOO    +OooOO+@$$$$@+",
"+.O+OOO+$$O+O+    O+++OO$@$$$$$@",
"OOo+OOOO$$OO+O    +@OOO.+O+$$$$$",
"+..O+OO$$@OOO+    @@+O...+O@@$@+",
"+O+@$$$$@@O+@O    $@+o.o+OO$O@+O",
"+X$$$$O+OOO@OO    $$@O+OO+$O+OO@",
"++$$@+O@@O+@+O    $$$$+o$$$$@OO.",
"O$$$@+O@OO$@$$    $@+OO+$$$$$+O+",
"+$OO$$OO+$$@O+    $+OO+$$$$$$$++",
"@$@$$$@O@$$++$    $$@+@$$$$$$$@+",
"$$OO@$OOO+$$++    @@++$$$@$OO$$$",
"$OOO$$Oo+$$+$     @$+$$$$@$$@$@@",
"$$@++...$$$         $$$$$$$$$$+O",
"$$@O..++               $$$$$$+O+",
"@@+O+OoO               $$$$$$$$O",
"$+@OO+o+O+O$#..O@$$$O+$$$$$$$$OO",
"+O$@$$O+OOO++OOO+.OOX+##O$#$..oo",
"O+$$$$@O$O+OOOoOOooO$.....+XX..."
};
