/* XPM */
static char *xpm_[] = {
/* columns rows colors chars-per-pixel */
"32 32 9 1 ",
"  c #8D0313",
". c #95DF7B",
"X c #96DF7C",
"o c #96E07C",
"O c #97E17D",
"+ c #99E27F",
"@ c #99E37F",
"# c #9AE380",
"$ c #9AE480",
/* pixels */
"OOO+$++@$$$$$$$$$@$$$$@+O$$$$@$$",
"O.O++O$$@@@@$$$$$@$$@+O$$$$$$@$$",
".O+OO$$$O+          $$$$$$$$@O+@",
"XO+OO$$O             $$$$@@@++@$",
"OO@$O$$      OOO      $$$$@O@@$$",
"O+$$+O+    $+@+$$      @$@+O$@+$",
"@@$@OO@    $O+$$$$     @$$@+$OO$",
"OO$O++$   $$OO$@$@     $$@+O$@O+",
"oX$++@$$$$$$OO++++     $$+@O++OO",
".X+O$$$$$$@Oo+++$O     $$O$$$++$",
".o++O$$$$@OOOO@+Oo     $$@$$++O$",
".O$O$$$$$@ooO+$OO@    @@+O$OO+$$",
".@+@$$$$$$+O+$oO+     @.OO@O@$$O",
"$$$$$$@@$$O$+@Oo+    @ooo+O+@$O+",
"O+$+++O@$$+OOOO+     oOO+@$$$$@+",
"+.O+OOO+$$O+O+$     ++OO$@$$$$$@",
"OOo+OOOO$$OOO+     $OOO.+O+$$$$$",
"+..O+OO$$@OOO     @@+O...+O@@$@+",
"+O+@$$$$@+O+@    $$@+o.o+OO$O@+O",
"+X$$$$O+OOO@    $$$$@O+OO+$O+OO@",
"++$$@+O@+O+    $$$$$$$+o$$$$@OO.",
"O$$$@+O@OO    $$$$$@+OO+$$$$$+O+",
"+$OO$$OOO    @$$$$$+O+O$$$$$$$++",
"@$@$$$@O$    $$$$$$$@  $$$$$$$@+",
"$$OO@$OO    ++$$$@++   $$@$OO$$$",
"$OOO$$o    +++OOO+@    $$@$$@$@@",
"$$@+Ooo                $$$$$$$+O",
"$$@OO.                 $$$$$$+O+",
"@@+O+O                 $$$$$$$$O",
"$+@O.@OOO+O$#..O@$$$O+$$$$$$$$OO",
"+O$+$$O+OOO++OOO+.OOX+##O$#$..oo",
"O+$$$$$O$O+OOOoOOooO$.....+XX..."
};
