/* XPM */
static char *xpm_[] = {
/* columns rows colors chars-per-pixel */
"32 32 9 1 ",
"  c #8D0313",
". c #95DF7B",
"X c #96DF7C",
"o c #96E07C",
"O c #97E17D",
"+ c #99E27F",
"@ c #99E37F",
"# c #9AE380",
"$ c #9AE480",
/* pixels */
"OOO+$++@$$$$$$$$$@$$$$@+O$$$$@$$",
"O.O++O$$@@@@$$$$$@$$@+O$$$$$$@$$",
".O+OO$$$O+          $$$$$$$$@O+@",
"XO+OO$$O             $$$$@@@++@$",
"OO@$O$$      OOO      $$$$@O@@$$",
"O+$$+O+    $+@+$$      @$@+O$@+$",
"@@$@OO@    $O+$$$$     @$$@+$OO$",
"OO$O++$   $$OO$@$@     $$@+O$@O+",
"oX$++@$$$$$$OO@+@@     $$+@O++OO",
".X+O$$$$$$@Oo+++$O     $$O$$$++$",
".o++O$$$$@OOOO$+O     @$$@$$++O$",
".O$O$$$$$@ooO@$OO     @++O$OO+$$",
".@+@$$$$$$+O+$O     +@@.OO@O@$$O",
"$$$$$$@@$$O$       ++@Ooo+O+@$O+",
"O+$+++O@$$         OooOO+@$$$$@+",
"+.O+OOO+$$           +OO$@$$$$$@",
"OOo+OOOO$$OO+O        O.O++$$$$$",
"+..O@OO$$@OOO+O++      .OOO++$@+",
"+O+@$$$$@@O+@O@$$@     oOOO$O@+O",
"+X$$$$O+OOO@OOO$$+     OO$$O+OO@",
"++$$@+O@@O+@+O$$$$$    O$$$$@OO.",
"O$$$@+O@OO$@$$$$$$$    +$$$$$+O+",
"+$OO$$OO+$$@O@$$$$$    $$$$$$$++",
"@$@$$$    $++$$$$$     $$$$$$$@+",
"$$OO@$    $$+++@$$     $$@$OO$$$",
"$OOO$$     +++OOO     $$$@$$@$@@",
"$$@+Oo       +OO      $$$$$$$$+O",
"$$@OOO               $$$$$$$$+O+",
"@@+O+OoO+          $$$$$$$$$$$$O",
"$+@OO+o+O+O$#..O+$$$O+$$$$$$$$OO",
"+O$@$$O+OOO++OOO@.OOX+##O$#$..oo",
"O+$$$$@O#O+OOO.+Oo.O$.....+XX..."
};
