/* XPM */
static char *xpm_[] = {
/* columns rows colors chars-per-pixel */
"32 32 9 1 ",
"  c #8D0313",
". c #95DF7B",
"X c #96DF7C",
"o c #96E07C",
"O c #97E17D",
"+ c #99E27F",
"@ c #99E37F",
"# c #9AE380",
"$ c #9AE480",
/* pixels */
"OOO+$++@$$$$$$$$$@$$$$@+O$$$$@$$",
"O.O++O$$@+@@$$$+$+$$@@O$$$$$$@$$",
".O+OO$$$O+O$$OOO    $$$$$$$$@O+@",
"XO+OO$$OO+$@$OO     $$$$$@@@++@$",
"OO@$O$$+$@$++OO     $$$$$$@O@@$$",
"O+$$+OO@@$@$+@      $@$@$@+O$@+$",
"@@$@OO$$$$$$O       O+O@$$@+$OO$",
"OO$O++$$$$$+O       $@+@$@+O$@O+",
"oX$++@$$$$$$        oO@$$+@O++OO",
".X+O$$$$$$$    +    O@$$$O$$$++$",
".o++O$$$$$O   ++    O+@$$@$$++O$",
".O$O$$$$$@    @O    +O@++O$OO+$$",
".@+@$$$$$    @oO    +@@.OO@O@$$O",
"$$$$$$$@$    @OO    +@Ooo+O+@$O+",
"O+$+++O@    OOO+    ooOO+@$$$$@+",
"+.O+OOO    +++@$    ++OO$@$$$$$@",
"+.o+OOO    OO++O    +OoOOO+$$$$$",
"OOoO+O    OOOO++    OO   +O@@$@+",
"+O+@$$   OO+@O@$    +O   OO$O@+O",
"+O$$$                    +@O+OO@",
"+@@$@                    $$$@OOo",
"O@$$@+O@+O$@$$$$    OOO+$$$$$+O+",
"+$OO$$OO+$$+O@$$    ++O$$$$$$$++",
"@$@$$$@O@$$++$$$    @O@$$$$$$@@+",
"$$OO@$OOO@$$+@+@    ++$$$@$OO$$$",
"$OOO$$Oo+$$+@+OO    +$$$$@$$@$@@",
"$$@@+...$$$$$+OO    $$$$$$$$$$@O",
"$$+O..++$$$$@O        $$$$$$$+O+",
"@@+O+OoO++$$+O        $$$$$$$$$O",
"$+@OO+o+O++@#..O@$$$O+$$$$$$$$OO",
"+O$@$$O+OOO++OOO+.OOX+##O$#$..oo",
"O+$$$$@O$O+OOOoOOooO$.....+XX..."
};
