/* XPM */
static char *xpm_[] = {
/* columns rows colors chars-per-pixel */
"32 32 9 1 ",
"  c #8D0313",
". c #95DF7B",
"X c #96DF7C",
"o c #96E07C",
"O c #97E17D",
"+ c #99E27F",
"@ c #99E37F",
"# c #9AE380",
"$ c #9AE480",
/* pixels */
"OOO+$++@$$$$$$$$$@$$$$@+O$$$$@$$",
"O.O++O$$@@@@$$$@$+$$@@O$$$$$$@$$",
".O+OO$$$O+O$$OOOO     $$$$$$@O+@",
"XO+OO$$OO+$@$O        $$$@@@++@$",
"OO@$O$$+$@$++       $$$$$$@O@@$$",
"O+$$+OO@@$@$     $$@$@$@$@+O$@+$",
"@@$@OO$$$$     $$$@@O+O@$$@+$OO$",
"OO$O++$$$@    $@$++O$@+@$@+O$@O+",
"oX$++@$$$     +@@+OOoO+$$+@O++OO",
".X+O$$$$     +++$OO@O+$$$O$$$++$",
".o++O$$$    OO$@Oo$$O+$$$@$$++O$",
".O$O$$$     O@$OO@@@+O@@+O$OO+$$",
".@+@$$@     $$OO++$$+@@.OO@O@$$O",
"$$$$$$@    $+        @ooo+O+@$O+",
"O+$+++                 O+@$$$$@+",
"+.O+OO        @$+      O$@$$$$$@",
"+.o+OO      O+@O+O@     O++$$$$$",
"OO.O+O     OOO++O+@     OOO@@$@+",
"+O+@$$     O@O@$$$@@    OOO$O@+O",
"+O$$$$     @+OO$$$$$     $$O+OO@",
"+@$$@+     @+O$$$$$$     $$$@OOo",
"O@$$@+     $$$$$$$$@     $$$$@O+",
"+$OO$$     +O@$$$$$@     $$$$$++",
"@$@$$$@    ++$$$$$$$    $$$$$@@+",
"$$OO@$O     +@@$$+$     $@$OO$$$",
"$OOO$$oO    @+OOO+     $$@$$@$@@",
"$$@+Ooo.      OOO      $$$$$$$@O",
"$$+OO.++$             $$$$$$$+O+",
"@@+O+Oo+++$         $$$$$$$$$$$O",
"$+@O.@OOO++@#..O@$$$O+$$$$$$$$OO",
"+O$+$$O+OOO++OOO@.OOX+##O$#$..oo",
"O+$$$$@O#O+OOO.+Oo.O$.....+XX..."
};
