/* XPM */
static char *xpm_[] = {
/* columns rows colors chars-per-pixel */
"32 32 9 1 ",
"  c #8D0313",
". c #95DF7B",
"X c #96DF7C",
"o c #96E07C",
"O c #97E17D",
"+ c #99E27F",
"@ c #99E37F",
"# c #9AE380",
"$ c #9AE480",
/* pixels */
"OOO+$++@$$$$$$$$$@$$$$@+O$$$$@$$",
"O.O++O$$$@@@$$$$$+$$@@O$$$$$$@$$",
".O+OO$$                 $$$$@O+@",
"XO+OO$$                 $@@@++@$",
"OO@$O$$                 $$@O@@$$",
"O+$$+O+    $+$$$$$$@   @$@+O$@+$",
"@@$@OO@   $$O+$$$$@    @$$@+$OO$",
"OO$O++   $$$OO$@$@+    $$@+O$@O+",
"oX$++@$$$$$$OO++@+    @$$+@O++OO",
".X+O$$$$$$@Oo+++$O    $$$O$$$++$",
".o++O$$$$@OOOO@+O    @@$$@$$++O$",
".O$O$$$$$@ooO+$OO    O@++O$OO+$$",
".@+@$$$$$$+O+$oO    +@@.OO@O@$$O",
"$$$$$$@@$$O$+@Oo    +@Ooo+O+@$O+",
"O+$+++O@$$+OOOO+   OooOO++$$$$@+",
"+.O+OOO+$$O+O+$    +++OO$@$$$$$@",
"OOo+OOOO$@+OO++    +OOO.+O+$$$$$",
"+..O+OO$$@OOOO    @++O...+O@@$@+",
"+O+@$$$$@+OO+O    $@+o.o+OO$O@+O",
"+X$$$$O+OOO++    $$$@O+OO+$O+OO@",
"++$$@+O@@O+@+    $$$$$+o$$$$@OO.",
"O$$$@+O@OO$@    $$$@+OO+$$$$$+O+",
"+$OO$$OO+$$@    $$$+OO+$$$$$$$++",
"@$@$$$@O@$$     $$$$@+@$$$$$$$@+",
"$$OO@$OOO+$    +$@@@++$$$@$OO$$$",
"$OOO$$Oo+$     OO+@$+$$$$@$$@$@@",
"$$@++...$$    OOOOO$$$$$$$$$$$+O",
"$$@O..++$$    O.O@$$$$$$$$$$$+O+",
"@@+O+OoO+    O..o@$$$$$$$$$$$$$O",
"$+@OO+o+O+O$$..O+@$$O+$$$$$$$$OO",
"+O$@$$O+OOO++OOO+oOOX+##O$#$..oo",
"O+$$$$@O$O+OOOoOOooO$.....+XX..."
};
