/* XPM */
static char *xpm_[] = {
/* columns rows colors chars-per-pixel */
"32 32 9 1 ",
"  c #8D0313",
". c #95DF7B",
"X c #96DF7C",
"o c #96E07C",
"O c #97E17D",
"+ c #99E27F",
"@ c #99E37F",
"# c #9AE380",
"$ c #9AE480",
/* pixels */
"OOO+$++@$$$$$$$$$@$$$$@+O$$$$@$$",
"O.O++O$$$@@@$$$$$+$$@@O$$$$$$@$$",
".O+OO$$$OOO         $$$$$$$$@O+@",
"XO+OO$$O+             $$$@@@++@$",
"OO@$O$$+      OO@      @$$@O@@$$",
"O+$$+OO     +@+$$@      $@+O$@+$",
"@@$@OO     $O+$$$$@     $$@+$OO$",
"OO$O++     $OO$@$@+     $@+O$@O+",
"oX$++@     $OO++++OO    $+@O++OO",
".X+O$$     Oo+++@OO+    $O$$$++$",
".o++O$     OOO@+Oo@     $@$$++O$",
".O$O$$     oO+$OO@+     +O$OO+$$",
".@+@$$$     $$oO+$     .OO@O@$$O",
"$$$$$$@@      OO+     o.o+O+@$O+",
"O+$+++O@@            oOO+@$$$$@+",
"+.O+OOO+@            +OO$@$$$$$@",
"OOo+.OOO      @O       OOO+$$$$$",
"+..O$OO     OO+++O     Oo+O@@$@+",
"+O++$$     O@O@$$$$     OOO$O@+O",
"+X$$$$     @+OO$$$$     O@$O+OO@",
"++$$@+    +@+O$$$$$$    $$$$@OOo",
"O$$$@+    $@$$$$$$$@    $$$$$+O+",
"+$OO$$    $@O@$$$$$+    $$$$$$++",
"@$@$$$     ++$$$$$$$    $$$$$@@+",
"$$OO@$     $+@+$$+$     $@$OO$$$",
"$OOO$$O     @+OOO+     $$@$$@$@@",
"$$@+OoO       OOO      $$$$$$$@O",
"$$@OOoO+              $$$$$$$+O+",
"@@+OOOo+++          $$$$$$$$$$$O",
"$+@OO@OOO++@#..O@$$$O+$$$$$$$$OO",
"+O$+$$O+OOO++OOO@.OOX+##O$#$..oo",
"O+$$$$@O#O+OOO.+Oo.O$.....+XX..."
};
