/* XPM */
static char *xpm_[] = {
/* columns rows colors chars-per-pixel */
"32 32 9 1 ",
"  c #8D0313",
". c #95DF7B",
"X c #96DF7C",
"o c #96E07C",
"O c #97E17D",
"+ c #99E27F",
"@ c #99E37F",
"# c #9AE380",
"$ c #9AE480",
/* pixels */
"OOO+$++@$$$$$$$$$@$$$$@+O$$$$@$$",
"O.O++O$$$@@@$$$$$+$$@@O$$$$$$@$$",
".O+OO$$$OOO        O$$$$$$$$@O+@",
"XO+OO$$O+            $$$$@@@++@$",
"OO@$O$$+      OO      $$$$@O@@$$",
"O+$$+OO     +@+$$$     @$@+O$@+$",
"@@$@OO     $O+$$$$     @$$@+$OO$",
"OO$O++     $OO$@$++    @$@+O$@O+",
"oX$++@    $$OO++$OO     $+@O++OO",
".X+O$$    @Oo+++$O+     $O$$$++$",
".o++O$    OOOO@+Oo$     $@$$++O$",
".O$O@@    .oO+$OO@$     +O$OO+$$",
".@+@$$    +O+@oO+$$     OO@O@$$O",
"$$$$$$     ++@Oo+$$     o+O+@$O+",
"O+$+++     +OOO+$$      +@$$$$@+",
"+.O+OOO      +@$        $@$$$$$@",
"OOo+OOOO                O++$$$$$",
"+..O+OO$$        +@     OOO+@$@+",
"+O+@$$$$@+OO@O@$$$@    oOOO$O@+O",
"+X$$$$O+OOO@@OO$$$$    OO@$O+OO@",
"++$$@+O@@O+@+O$$$$     O$$$$@OOo",
"O$$$@+O@OO$@$$$$$$    O+$$$$$+O+",
"+$OO$$OO+$$@O@$$$     O$$$$$$$++",
"@$@$$$@O@$$++$$$$    +$$$$$$$@@+",
"$$OO@$OOO@$$+@$$     +$$$@$OO$$$",
"$OOO$$Oo+$$+@+      $$$$$@$$@$@@",
"$$@++...$$$$       $$$$$$$$$$$@O",
"$$@O..++$$       +$$$$$$$$$$$+O+",
"@@+O+OoO+@     .O@$$$$$$$$$$$$$O",
"$+@OO+o+O++@+..O++$$O+$$$$$$$$OO",
"+O$@$$O+OOO++OOO+oOOX+##O$#$..oo",
"O+$$$$@O$O+OOOoOOooO$.....+XX..."
};
