/* XPM */
static char *f3dc902e47a34a56b45d36d70f3814eeYgZlf7Bj03wy6sdf[] = {
/* columns rows colors chars-per-pixel */
"32 32 194 2 ",
"   c #9A1919",
".  c #A2191B",
"X  c #A6251F",
"o  c #B33B1E",
"O  c #9C2122",
"+  c #A52423",
"@  c #A52825",
"#  c #A92A26",
"$  c #A62728",
"%  c #A52B2A",
"&  c #AA2D2B",
"*  c #AE3125",
"=  c #A5342E",
"-  c #AA322E",
";  c #B63E22",
":  c #B3372A",
">  c #B23929",
",  c #AA3431",
"<  c #AC3B36",
"1  c #AE3D38",
"2  c #B13B31",
"3  c #B64027",
"4  c #BB4524",
"5  c #B6422B",
"6  c #BC452C",
"7  c #BB4A2D",
"8  c #A5473B",
"9  c #B1443E",
"0  c #B4493C",
"q  c #BE5336",
"w  c #BE593B",
"e  c #C2491E",
"r  c #C64C24",
"t  c #C44E2B",
"y  c #C5522C",
"u  c #C35433",
"i  c #C95632",
"p  c #C45A34",
"a  c #C95A35",
"s  c #C65A3A",
"d  c #CA6234",
"f  c #CA643C",
"g  c #CD6A3E",
"h  c #AE4644",
"j  c #B44B41",
"k  c #BA4C42",
"l  c #B54D48",
"z  c #AA5447",
"x  c #B75045",
"c  c #BB5346",
"v  c #BB554A",
"b  c #BD5B4D",
"n  c #B75757",
"m  c #B25C53",
"M  c #BF5F50",
"N  c #BF604B",
"B  c #BA7D4B",
"V  c #BC6453",
"C  c #BF6B59",
"Z  c #BE715E",
"A  c #BA6E69",
"S  c #B57567",
"D  c #BE7A76",
"F  c #C65E44",
"G  c #C15C4C",
"H  c #C05C50",
"J  c #CA6544",
"K  c #CD6C44",
"L  c #C3654B",
"P  c #CA6748",
"I  c #CC6B4A",
"U  c #D16B45",
"Y  c #CB724E",
"T  c #D2744B",
"R  c #C26253",
"E  c #C96D56",
"W  c #C36A59",
"Q  c #CE7651",
"!  c #CE7954",
"~  c #C4725D",
"^  c #CD7558",
"/  c #CD7B5C",
"(  c #D47A54",
")  c #D27E5B",
"_  c #C67964",
"`  c #CC7B63",
"'  c #C97A65",
"]  c #D07F6A",
"[  c #B28670",
"{  c #B6957B",
"}  c #B99379",
"|  c #B8997C",
" . c #BEA97F",
".. c #CD855E",
"X. c #D3835C",
"o. c #DC8D5C",
"O. c #CD8367",
"+. c #CB8B62",
"@. c #CC846B",
"#. c #D38461",
"$. c #D48A65",
"%. c #D98B64",
"&. c #D3876C",
"*. c #D2896E",
"=. c #D98B6B",
"-. c #C1906F",
";. c #D5916A",
":. c #DA936B",
">. c #C98275",
",. c #D28672",
"<. c #D38E72",
"1. c #CE9477",
"2. c #DC9673",
"3. c #D99B7B",
"4. c #C7A678",
"5. c #DDA377",
"6. c #DBA27C",
"7. c #96DF7C",
"8. c #9BDB7D",
"9. c #A6C37E",
"0. c #97E07D",
"q. c #98E27E",
"w. c #B69F81",
"e. c #B8AC85",
"r. c #B7B589",
"t. c #CC908A",
"y. c #D99B82",
"u. c #D49B96",
"i. c #DBA584",
"p. c #DFA88B",
"a. c #C4B383",
"s. c #C3BB86",
"d. c #C3BE89",
"f. c #DFB58E",
"g. c #C5AF91",
"h. c #DBAF96",
"j. c #C6BB9E",
"k. c #E2A683",
"l. c #E2AB86",
"z. c #EAAB86",
"x. c #E4AC8D",
"c. c #E4B18D",
"v. c #EAB28F",
"b. c #E3B592",
"n. c #E9B293",
"m. c #E4BB94",
"M. c #E8BC94",
"N. c #E4BE9B",
"B. c #EDBD9B",
"V. c #D4AAA5",
"C. c #DFB1AE",
"Z. c #A7C882",
"A. c #B2CD87",
"S. c #BDCB8E",
"D. c #A7D789",
"F. c #AADA8F",
"G. c #B5CA91",
"H. c #BBCB91",
"J. c #ACDA91",
"K. c #B6D493",
"L. c #B9D694",
"P. c #B3DB93",
"I. c #9AE480",
"U. c #A1E487",
"Y. c #A4E48B",
"T. c #A8E48E",
"R. c #ABE291",
"E. c #B4E59C",
"W. c #BBDBA2",
"Q. c #BAE6A5",
"!. c #C1C38A",
"~. c #C5C88A",
"^. c #C2D291",
"/. c #E5C395",
"(. c #E5C39B",
"). c #ECC39E",
"_. c #EACA9D",
"`. c #C2CEA2",
"'. c #C9DBB3",
"]. c #E7C5A0",
"[. c #ECC6A2",
"{. c #E7CBA2",
"}. c #EDCCA5",
"|. c #EFCFA9",
" X c #F3CAA8",
".X c #EFD1AA",
"XX c #F3DDB0",
"oX c #CBE6B4",
"OX c #EFE4B7",
"+X c #F2E4B7",
"@X c #F3E5BA",
"#X c #F4EBBC",
"$X c #F9EDBD",
"%X c #F7ECC2",
/* pixels */
"0.0.0.q.I.q.q.I.I.I.I.I.I.I.I.I.I.I.I.I.I.I.q.q.q.I.I.I.I.I.I.I.",
"0.0.0.I.q.0.I.I.I.q.q.q.I.I.I.I.I.q.I.U.Y.I.U.U.I.I.I.I.I.q.I.I.",
"7.q.q.0.0.I.I.I.0.q.0.I.I.q.0.0.0.q.I.Y f T T Q T.I.I.I.I.0.q.I.",
"0.0.q.0.0.I.I.0.q.q.I.I.I.0.0.7.7.J.G.+.X.:.%.%.Y.q.q.I.q.q.q.I.",
"0.0.q.I.q.I.I.q.I.q.I.q.q.0.0.0.q.S + n..XOX}.B.I.I.I.0.I.I.I.I.",
"q.q.I.I.q.q.q.q.q.I.q.I.s.a.a. .| -.` W ~ ../ ^ a.H.q.0.I.q.q.I.",
"I.q.I.q.q.0.I.I.I.I.I.R.p y i 5 @ *.i.< - 7 7 7 f ..I.q.I.q.q.I.",
"0.0.I.q.q.q.I.I.I.I.[ h 6 Y }.[.[.W < & G v.M._.v.^.q.0.I.q.0.q.",
"7.7.I.q.q.I.I.I.Y.R.l & q / ).(.(.b & 9 E z.b.N.p.!.q.0.q.q.0.q.",
"7.7.q.q.I.I.I.I.w.% & 1 l.2.p q 5 & , i.;.a 5 % + 9 I.I.I.q.q.I.",
"7.7.I.q.q.L.L.K.A & v V ] ^ i I / ~ ~ $.Q 6 Z | } e.I.I.q.q.q.I.",
"7.7.I.q.Y.p 4 o * % y.k.- > t 3.$X#XXXg 6   G.I.q.0.I.0.q.q.I.I.",
"7.P.a.s.4.a T 6.*.] W M - 0 %.` _ _ _ 6 R V.I.8.A.!.d.K.q.I.I.0.",
"I.s.e y y y :.@X}.B.0 % & v M.C O @ $ + 9.Q.h.p g g d 4.I.I.q.q.",
"7.d.e 5.(./.2.L J F 2 1 <.` > t.'.W.'.W.j.m 3._.c.k.o.~.I.I.q.q.",
"q.S.I ~._.}.;.; u F k v 3.@.z g.R.E.oXQ.V.- *.].x.k.o.s.Y.I.I.I.",
"q.0.7.+.r i y ; 6.+X[.x.X A I.A.u p u & v b.W - 5 7 U K f H.I.I.",
"q.0.7.S.4.X.) / <.3.<.,.>.Z.D.,.t ! $.~ ~ @.c & E X.%.%.X.L.I.q.",
"q.0.q.I.I.^.|.%XC . X z I.W.= : 5 f.@X#Xi.$ & = (.+X).).B.R.q.0.",
"q.0.I.I.Y.V b V u.`.F.D.D n & N :.#.X.! G & R *.X.) H b c G.0.I.",
"q.q.I.I.Y.< & 8 C.I.Y.Q.- & - ~ c.I y 7 5 - ` l.f t , , % r.7.7.",
"q.I.I.I.q.I.R.I.y.P L c & x k.W 1 u f m.{.{.;.s : 9 R.Y.Y.I.0.q.",
"q.I.0.0.I.I.I.oX*.t u w j V 3.R # s Y b.N.].#.t l S I.I.I.I.I.q.",
"I.I.q.I.Y.B p u i i z.[.+Xp.& - % *.k., @ # # # R.I.I.I.I.I.I.I.",
"I.I.0.q.Y.a K #.( Y =.2.k.O.% j b ~ ` } { } } { Y.q.I.0.7.I.I.I.",
"I.0.7.0.Y.t %.%X(.l.w 3 3 > + ~ B.0 % I.I.I.I.I.I.q.I.I.I.I.q.q.",
"I.I.q.I.I.G.s.%.X.( p s &.<.1.' M e.G.I.I.I.I.I.I.I.I.I.I.I.q.q.",
"I.I.q.0.0.7.K.4 y y i J B. X$X@.  J.I.I.I.I.I.I.I.I.I.I.I.q.q.q.",
"I.q.q.0.q.0.I.R.!.;.:.$.k k k e.F.I.I.I.I.I.I.I.I.I.I.I.I.I.I.0.",
"I.q.I.0.0.I.0.q.P.S.S.!.m l h D.q.I.I.I.q.q.I.I.I.I.I.I.I.I.0.0.",
"q.q.I.q.I.I.q.q.0.0.0.I.q.0.0.0.I.7.0.7.7.q.I.I.0.I.I.I.7.7.7.7.",
"q.q.I.I.I.I.I.q.I.q.q.0.0.0.0.q.7.0.7.0.I.7.7.7.7.7.q.7.7.7.7.7."
};
