/* XPM */
static char *_16cbe560c224a09b02c36aa6a96eaa0iizY9mo2cDmVNNZb[] = {
/* columns rows colors chars-per-pixel */
"32 32 178 2 ",
"   c #090606",
".  c #230B08",
"X  c #27150F",
"o  c #2E1A15",
"O  c #391610",
"+  c #341B15",
"@  c #3B1B10",
"#  c #38211A",
"$  c #0E1C2C",
"%  c #141E31",
"&  c #2F2724",
"*  c #3E3A3A",
"=  c #461E14",
"-  c #551B15",
";  c #462418",
":  c #5C2215",
">  c #5F2F15",
",  c #5A2519",
"<  c #5B301D",
"1  c #602306",
"2  c #632715",
"3  c #63261D",
"4  c #55302B",
"5  c #5C3A35",
"6  c #622A23",
"7  c #692A21",
"8  c #67392C",
"9  c #663B33",
"0  c #6E3F37",
"q  c #3E4C3F",
"w  c #69402D",
"e  c #6D453D",
"r  c #724339",
"t  c #2C344A",
"y  c #343D4C",
"u  c #343F55",
"i  c #354254",
"p  c #3B4455",
"a  c #31445A",
"s  c #3E4A5E",
"d  c #444B43",
"f  c #435345",
"g  c #495844",
"h  c #4C5A49",
"j  c #424656",
"k  c #424B54",
"l  c #40475C",
"z  c #444D5C",
"x  c #665853",
"c  c #725958",
"v  c #516C5B",
"b  c #767543",
"n  c #464E62",
"m  c #465163",
"M  c #4A5263",
"N  c #4B5A6C",
"B  c #505A6F",
"V  c #495B70",
"C  c #515C71",
"Z  c #5D636B",
"A  c #5A6575",
"S  c #586576",
"D  c #5B6B7B",
"F  c #5E707A",
"G  c #7C6563",
"H  c #6D7162",
"J  c #62757F",
"K  c #75777F",
"L  c #822E0D",
"P  c #8E331F",
"I  c #A6350B",
"U  c #893B27",
"Y  c #9B4014",
"T  c #A54419",
"R  c #B74515",
"E  c #B44918",
"W  c #BC4A1E",
"Q  c #B6501F",
"!  c #B84C26",
"~  c #B65026",
"^  c #C04711",
"/  c #D75517",
"(  c #DD5C1C",
")  c #F35E15",
"_  c #EE631B",
"`  c #F36216",
"'  c #F5651B",
"]  c #FE6C1D",
"[  c #EE711F",
"{  c #D55B23",
"}  c #D56327",
"|  c #EC6825",
" . c #FB6E24",
".. c #F1702B",
"X. c #EF7431",
"o. c #67855C",
"O. c #698465",
"+. c #6E8E6B",
"@. c #73876C",
"#. c #6F916D",
"$. c #719767",
"%. c #6C8F70",
"&. c #779873",
"*. c #7FA578",
"=. c #8AAB7F",
"-. c #88BA76",
";. c #8CB37F",
":. c #8EBB7F",
">. c #FB8B4D",
",. c #F89557",
"<. c #F99C67",
"1. c #F9A06B",
"2. c #E9AB7D",
"3. c #FDAC75",
"4. c #8DC574",
"5. c #8DC37B",
"6. c #91C37F",
"7. c #93CF7E",
"8. c #96DF7C",
"9. c #97E07D",
"0. c #98E27E",
"q. c #586C89",
"w. c #56708C",
"e. c #5C728E",
"r. c #5D7392",
"t. c #5E7998",
"y. c #657F8D",
"u. c #687F8E",
"i. c #717B8D",
"p. c #627792",
"a. c #6A7E91",
"s. c #617B99",
"d. c #7C828C",
"f. c #6C8294",
"g. c #748592",
"h. c #758FA4",
"j. c #7A8FA2",
"k. c #848889",
"l. c #9B8D86",
"z. c #878F95",
"x. c #908E90",
"c. c #909B97",
"v. c #AF9785",
"b. c #86A880",
"n. c #8BAE81",
"m. c #8FB780",
"M. c #90B583",
"N. c #92BD83",
"B. c #90BD90",
"V. c #8797A3",
"C. c #919DA8",
"Z. c #8DA0A4",
"A. c #8FA9BA",
"S. c #9CAAB0",
"D. c #ABB3AF",
"F. c #B1B1AD",
"G. c #B3B2B3",
"H. c #E1A893",
"J. c #FBBA96",
"K. c #DEBDA8",
"L. c #F0BEA0",
"P. c #94C683",
"I. c #95CB83",
"U. c #97C98C",
"Y. c #97D980",
"T. c #9ADA85",
"R. c #9CD788",
"E. c #9CD28C",
"W. c #9AE480",
"Q. c #A6C1A0",
"!. c #ADB9C2",
"~. c #ACBCCA",
"^. c #B9C0C2",
"/. c #DFCEC5",
"(. c #C8D3D7",
"). c #E8D6C7",
"_. c #E7DBD1",
"`. c #E7E6E6",
/* pixels */
"9.9.9.0.W.0.0.W.W.W.W.W.W.W.W.W.W.W.W.W.W.W.0.0.0.W.W.W.W.W.W.W.",
"9.9.9.W.0.9.W.W.W.0.0.0.W.W.W.W.W.0.W.W.W.0.0.W.W.W.W.W.W.0.W.W.",
"8.0.0.9.9.W.W.W.9.0.9.W.W.0.9.9.9.0.W.9.W.W.W.W.W.W.W.W.W.9.0.W.",
"9.9.0.9.9.W.W.9.0.0.W.W.W.9.9.8.8.8.W.W.W.W.W.W.W.0.0.W.0.0.0.W.",
"9.9.0.W.0.W.W.0.W.0.W.0.0.9.9.9.0.W.W.W.W.W.W.W.W.W.W.9.W.W.W.W.",
"0.0.W.W.0.0.0.0.0.W.0.W.0.W.W.W.W.W.W.W.W.0.W.0.W.W.0.9.W.0.0.W.",
"W.0.W.0.0.9.W.W.W.W.:.g h h h h h h f *.9.0.0.0.W.W.W.0.W.0.0.W.",
"9.9.W.0.0.0.W.O.q d %.g.a.y.y.y.y.y.f.&.f f f T.W.0.0.9.W.0.9.0.",
"8.8.W.0.R.&.d J f.f.D N C C C C C C B D f.a.a.v +.T.W.9.0.0.9.0.",
"8.9.0.5.#.d.C.A m M m M M m m m m m m m M M M u.J k #.W.W.0.0.W.",
"8.8.5.*.V.A l M M M M M M M M M M M M M M M M z N f.D +.W.0.0.W.",
"8.-.P.i.s n M M M M M M M M M M M M M M M M M M m l A D Z Q.8.W.",
"5.I.z.n M M m M M m z z z z z z z z z z M M M M M M n A F * 4.9.",
"o.^.Z z M M M k p p y y y y y y y y y y p j j M M M M m j.4 b 8.",
"O.v.d.u p p p i i N r.e.e.r.e.e.e.e.e.e.V i p p p p y D K ; + 0.",
"$.T L.A $ t a q.p.e.e.e.r.r.e.e.r.r.r.r.r.r.e.s t % i x.5   b.W.",
"I.< } H.Z.f.w.e.e.e.e.e.e.e.e.e.e.e.e.e.e.e.e.r.p.g.k.e O n.6.W.",
"0.* I [ <.K.(.h.t.s.e.e.e.e.e.e.e.e.e.e.s.p.s.A.c.G r - & 6.P.0.",
"0.T.4 / ) ,.J._.`.`.S.r.s.s.t.t.s.s.r.j.~.~.!.c 8 : , # M.;.8.9.",
"0.9.R.8 ( ] >.3.1.X.2._.)./.G.G.F.D.G.l.9 0 0 6 3 , + n.;.7.9.W.",
"0.0.W.E.w Y ( ] ' ) | ....} Q ~ ! ~ ! U : , 3 3 O # =.:.I.9.8.8.",
"0.W.W.W.E.O.8 L |  .' ` _ ^ R R E R T 2 7 6 O o @.n.m.P.W.0.9.0.",
"0.W.9.9.W.W.U.&.> 1 E  .{ W W W W ! P = . . H n.:.6.Y.W.W.W.W.0.",
"W.W.W.W.W.W.0.9.P.B.x ; = @ @ @ ; # X d c.n.m.N.Y.W.W.W.W.W.W.W.",
"W.W.9.0.W.W.9.8.9.W.W.E.E.E.E.E.N.P.=.=.;.:.Y.W.W.0.W.9.8.W.W.W.",
"W.9.8.9.W.W.9.8.0.W.W.0.W.0.9.9.9.0.0.W.W.W.W.W.W.0.W.W.W.W.0.0.",
"W.W.0.W.0.9.8.8.W.W.W.W.W.0.9.9.9.9.9.W.W.W.W.W.W.W.W.W.W.W.0.0.",
"W.W.0.9.9.8.0.0.W.W.W.W.0.9.8.8.9.0.W.W.W.W.W.W.W.W.W.W.W.0.0.0.",
"W.0.0.9.0.9.9.0.0.W.W.W.0.9.9.8.9.W.W.W.W.W.W.W.W.W.W.W.W.W.W.9.",
"W.0.W.9.9.W.9.0.9.0.0.W.W.8.8.9.0.W.W.W.0.0.W.W.W.W.W.W.W.W.9.9.",
"0.0.W.0.W.W.0.0.9.9.9.W.0.9.9.9.W.8.9.8.8.0.W.W.9.W.W.W.8.8.8.8.",
"0.0.W.W.W.W.W.0.W.0.0.9.9.W.9.0.8.9.8.0.W.8.8.8.8.8.0.8.8.8.8.8."
};
