/* XPM */
static char *_7b9d59ef0c14b17944fe9025255da0cnOIOHmoIeFZQYdtk[] = {
/* columns rows colors chars-per-pixel */
"32 32 234 2 ",
"   c #040404",
".  c #0B0C13",
"X  c #111115",
"o  c #391B12",
"O  c #3C2A14",
"+  c #111D2F",
"@  c #343B21",
"#  c #393B37",
"$  c #520000",
"%  c #6E120C",
"&  c #671C12",
"*  c #452718",
"=  c #5A2B1B",
"-  c #46321D",
";  c #692E18",
":  c #563428",
">  c #563C2C",
",  c #65372B",
"<  c #713825",
"1  c #395133",
"2  c #4E4A2D",
"3  c #5D542D",
"4  c #5F5231",
"5  c #674A37",
"6  c #7B4A36",
"7  c #6F5033",
"8  c #6B6F3F",
"9  c #30384C",
"0  c #3B4454",
"q  c #374559",
"w  c #424647",
"e  c #474A5E",
"r  c #6F4940",
"t  c #7C5252",
"y  c #537046",
"u  c #6E7A4E",
"i  c #78774D",
"p  c #464E62",
"a  c #475365",
"s  c #4A5364",
"d  c #565A69",
"f  c #515D71",
"g  c #5D636B",
"h  c #55756D",
"j  c #5B6676",
"k  c #6F676F",
"l  c #626573",
"z  c #7A747D",
"x  c #900A0B",
"c  c #880713",
"v  c #920213",
"b  c #990015",
"n  c #B40A13",
"m  c #A4191E",
"M  c #8F2D16",
"N  c #B12A16",
"B  c #961621",
"V  c #A71F25",
"C  c #843334",
"Z  c #A72827",
"A  c #B1342D",
"S  c #C7060A",
"D  c #CB1014",
"F  c #D2251A",
"G  c #C91828",
"H  c #D81B29",
"J  c #D11936",
"K  c #C82427",
"L  c #DE2228",
"P  c #EE302C",
"I  c #F93A2D",
"U  c #994310",
"Y  c #B04D10",
"T  c #B84A1C",
"R  c #BD541E",
"E  c #917818",
"W  c #B06F0C",
"Q  c #88542D",
"!  c #BA5623",
"~  c #B4473B",
"^  c #BE5639",
"/  c #8F6A36",
"(  c #AA6F3E",
")  c #CE5614",
"_  c #EA561B",
"`  c #FA5B16",
"'  c #C56619",
"]  c #E6661C",
"[  c #F76A1A",
"{  c #E8751B",
"}  c #F77D14",
"|  c #C5512B",
" . c #DB552F",
".. c #C55837",
"X. c #F65726",
"o. c #CB6529",
"O. c #D06C2B",
"+. c #F07026",
"@. c #F77B24",
"#. c #903C48",
"$. c #FD3141",
"%. c #8D5050",
"&. c #AF4D49",
"*. c #B24B42",
"=. c #BA5648",
"-. c #8E6F48",
";. c #BD6256",
":. c #91676A",
">. c #8C7178",
",. c #A87162",
"<. c #A97576",
"1. c #CD5B48",
"2. c #C86A4F",
"3. c #CC714A",
"4. c #D47648",
"5. c #D37D55",
"6. c #CA7A63",
"7. c #598E58",
"8. c #698A54",
"9. c #78A95F",
"0. c #6A8B67",
"q. c #6C9762",
"w. c #55A678",
"e. c #6EAD6E",
"r. c #74AB68",
"t. c #6BBE7C",
"y. c #7FCB7A",
"u. c #A18E3C",
"i. c #D59510",
"p. c #FB930B",
"a. c #FC8712",
"s. c #FAA602",
"d. c #FFA401",
"f. c #FEB702",
"g. c #EBB51F",
"h. c #D5892B",
"j. c #ED9131",
"k. c #D0AA36",
"l. c #EBBA2E",
"z. c #EEC01B",
"x. c #E9CE22",
"c. c #FFE828",
"v. c #FFFF2B",
"b. c #888647",
"n. c #A2804B",
"m. c #85A55C",
"M. c #B2927D",
"N. c #85B969",
"B. c #89B471",
"V. c #D3825A",
"C. c #FA9052",
"Z. c #F3B351",
"A. c #CC856C",
"S. c #D7896B",
"D. c #D79368",
"F. c #D18E72",
"G. c #D79977",
"H. c #EE9E71",
"J. c #D5B565",
"K. c #F5A972",
"L. c #B9D14B",
"P. c #A5D55D",
"I. c #87C975",
"U. c #8DD47A",
"Y. c #89D57D",
"T. c #91D477",
"R. c #95DE7C",
"E. c #97E17D",
"W. c #98E27E",
"Q. c #C5D650",
"!. c #F4CE53",
"~. c #CAE359",
"^. c #F7F250",
"/. c #FCD071",
"(. c #FEF77B",
"). c #56708C",
"_. c #5D728F",
"`. c #5D7392",
"'. c #5E7998",
"]. c #667F8E",
"[. c #757A8E",
"{. c #627A95",
"}. c #657D97",
"|. c #737E90",
" X c #847E89",
".X c #79828C",
"XX c #6D8194",
"oX c #738494",
"OX c #59B583",
"+X c #788FA2",
"@X c #72C983",
"#X c #958384",
"$X c #8E8F93",
"%X c #8C8994",
"&X c #A58C8D",
"*X c #AE9489",
"=X c #90A582",
"-X c #A7AA8C",
";X c #8C9AA6",
":X c #93A5AE",
">X c #AEB6B5",
",X c #B7B6B3",
"<X c #C39596",
"1X c #E19F80",
"2X c #DEAC88",
"3X c #D4BB8E",
"4X c #E4B38E",
"5X c #FCB988",
"6X c #E8B392",
"7X c #DEBDA8",
"8X c #F0BEA0",
"9X c #96CB85",
"0X c #9ADC82",
"qX c #B8C584",
"wX c #A6D983",
"eX c #B5DB92",
"rX c #8FE085",
"tX c #97E382",
"yX c #9AE480",
"uX c #A6C1A0",
"iX c #C0C39F",
"pX c #ECC39C",
"aX c #FEF78A",
"sX c #EACCA2",
"dX c #FEF5AE",
"fX c #B9C0C2",
"gX c #C8D3D7",
"hX c #E6D7CB",
"jX c #FAEBCA",
"kX c #FEFBC9",
"lX c #FFFDD8",
"zX c #EFEEE4",
"xX c #F9F9F6",
"cX c #FEFEFE",
/* pixels */
"E.E.E.W.yXW.W.yXyXyXe.O 7.yXyXyXyXyXyXyXyXyXW.W.W.yXyXyXyXyXyXyX",
"E.E.E.yXW.E.yXyXyXR.u S % 8 T.yXyXE.yXyXyXW.W.yXyXyXyXyXyXW.yXyX",
"R.W.W.E.E.yXyXyXt.$ D G H D > Y.R.E.yXE.yXyXyXyXyXyXyXyXyXE.W.yX",
"E.E.W.E.E.yXtX@X# D H ) ] K n , y.R.yXyXyXyXyXyXyXW.E.yXW.W.W.yX",
"E.E.W.yXW.yXtXy x $.[ d.d.} @.` m < m.E.yXyXyXyXyXyXyXE.yXyXyXyX",
"W.E.yXyXb.8.m.n I a.d.f.f.d.d.d.a.I x q.0XwXwXqXqXwXE.E.yXW.W.yX",
"yXW.yX7.F m c X.p.f.k.3 3 4 4 5 7 r %.:.iXG.V.5.5.wXyXE.yXW.W.yX",
"E.E.Y.- G I @./ 2 2 b.oX].].]..X:X>X>X<X~ 2X6XG.D.eXyXE.yXW.E.E.",
"E.R.1 n  .( w j XX|.j f f f j  X^ 2.~ ;.G.*.~ ..4.3.qXE.W.W.E.tX",
"E.U.6 *.-..X;Xj p a p s s d k ~ ^ 4XsXG.~ Z A.pX4X2X-XyXyXW.W.yX",
"R.B.C t ;Xj q a s s s s l <.A ~ G.S.V.=.Z 6.D.V.=.~ #X0.yXW.W.yX",
"E.B.%.|.q p a d d l #X>.<.m =.6.6.| 3.F.A.D...~ >.>. Xj g uXR.yX",
"I.9X$Xp s s a s l &X..| 1.;.F.2.Z 2.G.4X2X..~ :.a s p j j # I.E.",
"8.fXg p s s s ,.| ....S.pXsX=.Z ~ G.;.*.&.A >.s s s s p +X: i R.",
"0.*X.Xq 0 0 0 ,.V.sX2X3...^ A ;.G.A $X|.j e e 0 0 0 9 j z * o W.",
"q.U 8Xj + 9 q |.*X3.3.....1X4XA.=.%X}.`.`.`._.q 9 + 0 $X>   =XyX",
"9X= o.4X;XXX)._.oX#X6.5.5.6.A.*X%X`._._._._._.`.{.oX%X5 o B.0XyX",
"W.# N +.H.7XgX+X'.}.%X$X#X%.#.[._._._._.{.{.{.:X;Xk 6 B , 7.yXW.",
"W.0X: ) ` C.5XhXzXzX:X`.}.{.'.'.{.{.].=X3XJ.J.( C ; ] J n & 9.E.",
"W.E.m., _ [ C.K.K.+.K.hXhXhX,X,X,X,X,XM.6 Q Q T G W p. .H N < T.",
"W.I.C 1.5 U ] a.} [ +.@.j.O.R h.o.! O.k.i.W i.s.a.M W ] H L x 2 ",
"W.y B J 4.-.W U +.5XjX5Xj.) T ' R ' (.cXcXcXl.s.a.} X.K H D n $ ",
"E.> n G } Y k.u.jXcXcXcXkXh.R T T O.kXcXcXcXcXg.a.I P D n 6 i y ",
"I.& P K { _ a.Z.cXcX    lXE * o O E kX.   xXcXaXI K V & < 8.R.Y.",
"9.c L H K I I /.cXcX. . lX^.l.l.J.x.kXX X xXcXdXM - h w.t.Y.yXyX",
"1 b S K S G L  .lXcXcXcX(.v.c.c.c.v.^.cXcXcXcX!.N.I.@XrXyXyXW.W.",
"@ % i 7 x = r O z.!.aX/.) o.o.o.o.o.) Z.aXZ./ L.W.W.yXyXyXyXW.W.",
"N.e.T.r.7.t.OXe.n.P _ g.b v v v v v b i.z.F Q N.yXW.yXW.yXW.W.W.",
"W.W.W.E.R.E.E.Y.9./ Q ^.j.N A A A N h.^.u.u m.T.W.yXyXyXyXyXyXE.",
"W.W.W.E.E.yXE.W.U.U.Y.I.~.Q.~.~.Q.Q.L.P.I.U.yXW.yXyXyXyXyXyXE.E.",
"W.W.yXW.yXyXW.W.E.E.R.yXW.T.R.R.W.R.U.R.R.W.yXyXE.yXyXyXR.R.R.R.",
"W.W.yXyXyXyXyXW.yXW.E.E.E.yXE.E.E.E.E.W.yXR.R.R.R.R.W.R.R.R.R.R."
};
