/* XPM */
static char *b7a97e33bcff470e92f6e552dd5f289fL5Mzvnh9El8IuxUd[] = {
/* columns rows colors chars-per-pixel */
"32 32 147 2 ",
"   c #171A1C",
".  c #1C1D1E",
"X  c #211E1C",
"o  c #141E23",
"O  c #1E282C",
"+  c #262220",
"@  c #232728",
"#  c #212B2F",
"$  c #222D32",
"%  c #2C363B",
"&  c #353B3E",
"*  c #3A412C",
"=  c #42432C",
"-  c #2A3940",
";  c #373E41",
":  c #1C4357",
">  c #34444C",
",  c #4A5D44",
"<  c #47604A",
"1  c #566C4F",
"2  c #5B6D4E",
"3  c #536E56",
"4  c #5F7656",
"5  c #657956",
"6  c #546F7C",
"7  c #8D0313",
"8  c #993316",
"9  c #973718",
"0  c #984D1D",
"q  c #678C5A",
"w  c #568573",
"e  c #708960",
"r  c #699361",
"t  c #78976C",
"y  c #779D74",
"u  c #709A7A",
"i  c #4FA07D",
"p  c #7CA37A",
"a  c #83A06F",
"s  c #86AA76",
"d  c #81AC7E",
"f  c #8CB47D",
"g  c #96DF7C",
"h  c #97E17D",
"j  c #98E27E",
"k  c #226381",
"l  c #296C8B",
"z  c #0976AC",
"x  c #0C79AF",
"c  c #0373B4",
"v  c #0D7CB3",
"b  c #0373BE",
"n  c #0C7DBB",
"m  c #107EB5",
"M  c #2B7EA8",
"N  c #5A7B8A",
"B  c #0070C3",
"V  c #39968F",
"C  c #2B8D99",
"Z  c #2F9098",
"A  c #359392",
"S  c #1681AC",
"D  c #1A84A9",
"F  c #1180B7",
"G  c #1282BA",
"H  c #3085AF",
"J  c #2E8AB7",
"K  c #528E85",
"L  c #469D85",
"P  c #4F9C9D",
"I  c #618090",
"U  c #628B9F",
"Y  c #7AAA85",
"T  c #7FB38C",
"R  c #5F8DA3",
"E  c #5A95B2",
"W  c #6C98AB",
"Q  c #57ACAE",
"!  c #198AC4",
"~  c #1C8FCA",
"^  c #1D92CD",
"/  c #1E95D0",
"(  c #2195D0",
")  c #2298D4",
"_  c #27A2DD",
"`  c #3AA9DC",
"'  c #2AA4E1",
"]  c #2FAAE7",
"[  c #35ACE6",
"{  c #34B1EF",
"}  c #3CB3EF",
"|  c #2FB2F1",
" . c #37B5F5",
".. c #39B6F4",
"X. c #39B8F7",
"o. c #35BAFD",
"O. c #3ABCFC",
"+. c #7EAFC8",
"@. c #6AB1CF",
"#. c #7DB0C8",
"$. c #41BFFC",
"%. c #3EC0F7",
"&. c #3EC3FF",
"*. c #3FCAFF",
"=. c #4AC1FC",
"-. c #55C7FF",
";. c #5BC6FA",
":. c #5FCCFF",
">. c #7FC6E1",
",. c #64C9FD",
"<. c #75CFFD",
"1. c #64D7FF",
"2. c #74D4FF",
"3. c #7CD2FD",
"4. c #72D8FF",
"5. c #85B688",
"6. c #91BE83",
"7. c #A1A49C",
"8. c #A6A9A1",
"9. c #BBBFB7",
"0. c #95C385",
"q. c #98C988",
"w. c #9DDE86",
"e. c #9ED68A",
"r. c #9FDA8A",
"t. c #A0D68B",
"y. c #A1DC8B",
"u. c #9AE480",
"i. c #9FE388",
"p. c #A1E18A",
"a. c #BFC3BB",
"s. c #83BAD5",
"d. c #85BAD5",
"f. c #87C1DB",
"g. c #8DC8E5",
"h. c #91C9E5",
"j. c #91CDEB",
"k. c #95D1E6",
"l. c #83D6FE",
"z. c #8DD8FD",
"x. c #96D6F6",
"c. c #95DBFD",
"v. c #9ADCFC",
"b. c #A1DEFD",
"n. c #9AE5FF",
"m. c #A2E2FF",
"M. c #A4EBFF",
/* pixels */
"h h h j u.j j u.u.u.u.u.u.u.u.u.u.u.u.u.u.u.j j j u.u.u.u.u.u.u.",
"h h h u.j h u.u.u.j j j u.u.u.u.u.j u.u.u.j j u.u.u.u.u.u.j u.u.",
"g j j h h u.u.u.h j h u.u.j w.q u.j u.h u.u.u.u.u.u.u.u.u.h j u.",
"h h j h h u.u.h j j u.u.u.h w.+ g g u.u.u.u.u.u.u.j j u.j j j u.",
"h h j u.j u.u.j u.j u.j j w.6.N 0.i.u.u.u.u.u.u.u.u.u.h u.u.u.u.",
"j j u.u.j j j j j u.j u.j 6.- v.@ e.u.u.u.j u.j u.u.j h u.j j u.",
"u.j u.j j h u.u.u.u.u.u.h 0.> x.% e.j j h j j j u.u.u.j u.j j u.",
"h h u.j j j u.u.u.u.u.u.s Y >.=.` w 6.h u.j j u.u.j j h u.j h j ",
"g g u.j j u.u.u.u.u.u.u.5 6 n.O.*.: a h h h j u.u.j j h j j h j ",
"g g j j u.u.u.u.u.u.u.w.y R 2.O.&.l p y.h j u.u.u.j u.u.u.j j u.",
"g g u.j h u.u.u.u.u.u., +.4.o.O.X.*.M 4 j j u.u.u.u.u.u.j j j u.",
"g g u.j u.u.u.u.u.y.1 d.;.$.O.X.! F ( Q 2 i.u.u.j h u.h j j u.u.",
"g u.j u.u.u.u.u.t.p W b.-.o.O.O.F z ) O.M y y.g g j j j j u.u.h ",
"u.u.u.u.u.u.u.y.d N M.3.=.O.X.' F x ! { *.k d w.g j h j u.u.j j ",
"g u.u.u.j j u.4 U M.c.$.O.O.] x v v x G X.*.k t j u.u.u.u.u.j j ",
"j g h j h w.1 #.v.v.c.$.&._ v v v v v v m { %.P 2 u.u.u.u.u.u.u.",
"j h g j h u.X s.M.z.=.O.) F v v v v v v v G | H = j j u.u.u.u.u.",
"j h g h p.6.I j.l.;.o.&.! x v v v v v v v x ' ` K 6.u.j j u.u.j ",
"j h j u.7.$ n.m.,.o.O. .! v v v v v v v v v ) O.X.o 9.u.j j j h ",
"j h u.u.8.% x.m.,.o.X.F v v v v m v v v m v x / } # a.h j h h u.",
"j j u.u.8.% x.m.,.o.X.F v v v S 9 i b Z 8 A c / } # a.u.u.h g g ",
"j u.u.u.8.% x.m.,.o.X.m v v v D 7 r B V 7 L c ^ } # a.u.u.j h j ",
"j u.h h 8.% v.m.<.=.X.^ m v v S 0 L b C 0 A n _ ..O a.u.u.u.u.j ",
"u.u.j u.e.3 j.v.b.l.O.&.~ v F m n n F n n v ' &.[ < y.u.u.u.u.u.",
"u.u.h j u.p.; d.m.3.o.o.X. . . . . . . . . .O.J & i.u.h g u.u.u.",
"u.h g h u.i.. d.M.z.<.3.=.o.O.O.O.O.O.O.O.o.1.E * u.u.u.u.u.j j ",
"u.u.j u.j u.s T f.m.m.m.2.:.:.:.:.:.:.:.:.:.@.5.f u.u.u.u.u.j j ",
"u.u.j h h g j e Y k.g.g.h.h.h.h.h.h.h.h.h.k.u s u.u.u.u.u.j j j ",
"u.j j h j h h j f   @ @ @ @ @ @ @ @ @ @ @   q.u.u.u.u.u.u.u.u.h ",
"u.j u.h h u.h j w.e.r.y.y.e.e.r.y.y.y.y.r.r.i.u.u.u.u.u.u.u.h h ",
"j j u.j u.u.j j h h h u.j h h h u.g h g g j u.u.h u.u.u.g g g g ",
"j j u.u.u.u.u.j u.j j h h h h j g h g h u.g g g g g j g g g g g "
};
