/* XPM */
static char *_45dfbc7022e4a83cb9fea41bdd6ac57ptLa3MM0AjXsb6KN[] = {
/* columns rows colors chars-per-pixel */
"32 32 147 2 ",
"   c #171A1C",
".  c #1C1D1E",
"X  c #211E1C",
"o  c #141E23",
"O  c #1E282C",
"+  c #262220",
"@  c #232728",
"#  c #212B2F",
"$  c #222D32",
"%  c #2C363B",
"&  c #353B3E",
"*  c #39402C",
"=  c #42432C",
"-  c #2A3940",
";  c #373E41",
":  c #1C4357",
">  c #34444C",
",  c #4B5F45",
"<  c #47604A",
"1  c #5A6C4D",
"2  c #566D52",
"3  c #5E7554",
"4  c #657956",
"5  c #546F7C",
"6  c #8D0313",
"7  c #993316",
"8  c #973718",
"9  c #984D1D",
"0  c #678C5A",
"q  c #568573",
"w  c #718961",
"e  c #699361",
"r  c #7A996E",
"t  c #759C76",
"y  c #4FA07D",
"u  c #7BA379",
"i  c #7FA87A",
"p  c #839F6F",
"a  c #86A976",
"s  c #87AE79",
"d  c #96DF7C",
"f  c #97E07D",
"g  c #98E27E",
"h  c #226381",
"j  c #296C8B",
"k  c #0976AC",
"l  c #0C79AF",
"z  c #0373B4",
"x  c #0D7CB3",
"c  c #0373BE",
"v  c #0C7DBB",
"b  c #107EB5",
"n  c #2B7EA8",
"m  c #5A7B8A",
"M  c #0070C3",
"N  c #39968F",
"B  c #2B8D99",
"V  c #2F9098",
"C  c #359392",
"Z  c #1681AC",
"A  c #1A84A9",
"S  c #1180B7",
"D  c #1282BA",
"F  c #3085AF",
"G  c #2E8AB7",
"H  c #528E86",
"J  c #469D85",
"K  c #4F9C9D",
"L  c #618090",
"P  c #628B9F",
"I  c #7AAA85",
"U  c #5F8DA3",
"Y  c #5A95B2",
"T  c #6C98AB",
"R  c #56AAAD",
"E  c #198AC4",
"W  c #1C8FCA",
"Q  c #1D92CD",
"!  c #1E95D0",
"~  c #2195D0",
"^  c #2298D4",
"/  c #27A2DD",
"(  c #3AA9DC",
")  c #2AA4E1",
"_  c #2FAAE7",
"`  c #35ACE6",
"'  c #34B1EF",
"]  c #3CB3EF",
"[  c #2FB2F1",
"{  c #37B5F5",
"}  c #39B6F4",
"|  c #39B8F7",
" . c #35BAFD",
".. c #3ABCFC",
"X. c #7EAFC8",
"o. c #6AB1CF",
"O. c #7DB0C8",
"+. c #41BFFC",
"@. c #3EC0F7",
"#. c #3EC3FF",
"$. c #3FCAFF",
"%. c #4AC1FC",
"&. c #55C7FF",
"*. c #5BC6FA",
"=. c #5FCCFF",
"-. c #7FC6E1",
";. c #64C9FD",
":. c #75CFFD",
">. c #64D7FF",
",. c #74D4FF",
"<. c #7CD2FD",
"1. c #72D8FF",
"2. c #83AF81",
"3. c #8EB880",
"4. c #82B48A",
"5. c #92BD82",
"6. c #A1A49C",
"7. c #A6A9A1",
"8. c #BBBFB7",
"9. c #94C285",
"0. c #98C987",
"q. c #9DDE86",
"w. c #9ED689",
"e. c #9FD98A",
"r. c #A0D68B",
"t. c #A1DC8B",
"y. c #9AE480",
"u. c #9FE388",
"i. c #A1E289",
"p. c #BFC3BB",
"a. c #83BAD5",
"s. c #85BAD5",
"d. c #87C1DB",
"f. c #8DC8E5",
"g. c #91C9E5",
"h. c #91CDEB",
"j. c #95D1E6",
"k. c #83D6FE",
"l. c #8DD8FD",
"z. c #96D6F6",
"x. c #95DBFD",
"c. c #9ADCFC",
"v. c #A1DEFD",
"b. c #9EE2FF",
"n. c #95E8FF",
"m. c #A2E2FF",
"M. c #A4EBFF",
/* pixels */
"f f f g y.g g y.y.y.y.y.y.y.y.y.y.y.y.y.y.y.g g g y.y.y.y.y.y.y.",
"f f f y.g f y.y.y.g g g y.y.y.y.y.g y.y.y.g g y.y.y.y.y.y.g y.y.",
"d g g f f y.y.y.f g f y.y.g y.0 q.g y.f y.y.y.y.y.y.y.y.y.f g y.",
"f f g f f y.y.f g g y.y.y.f g + q.d y.y.y.y.y.y.y.g g y.g g g y.",
"f f g y.g y.y.g y.g y.g g u.9.m 9.i.y.y.y.y.y.y.y.y.y.f y.y.y.y.",
"g g y.y.g g g g g y.g y.g w.@ c.- 5.y.y.y.g y.g y.y.g f y.g g y.",
"y.g y.g g f y.y.y.y.y.y.f w.% z.> 9.g g f g g g y.y.y.g y.g g y.",
"f f y.g g g y.y.y.y.y.y.5.q ( %.-.I a f y.g g y.y.g g f y.g f g ",
"d d y.g g y.y.y.y.y.y.y.p : $...n.5 4 f f f g y.y.g g f g g f g ",
"d d g g y.y.y.y.y.y.y.q.u j #...,.U t t.f g y.y.y.g y.y.y.g g y.",
"d d y.g f y.y.y.y.y.f 3 n $..... .1.X., y.g y.y.y.y.y.y.g g g y.",
"d d y.g y.y.y.y.y.i.1 R ~ D E ....+.*.s.2 t.y.y.g f y.f g g y.y.",
"d y.g y.y.y.y.y.t.t n ..^ k D .... .&.v.T u r.d d g g g g y.y.f ",
"y.y.y.y.y.y.y.i.2.h $._ E l D ) ....%.<.M.m i w.d g f g y.y.g g ",
"d y.y.y.g g g r h $.{ D l x x l _ ....+.x.M.P 3 y.y.y.y.y.y.g g ",
"g d f g f f 1 K @.' b x x x x x x / #.+.x.c.c.O.2 u.y.y.y.y.y.y.",
"g f d g f f = F [ D x x x x x x x D ^ ..%.l.M.a.X y.g y.y.y.y.y.",
"g f d f u.5.H ( ) k x x x x x x x k E #. .*.k.h.L 5.q.g g y.y.g ",
"g f g y.8.o ....^ x x x x x x x x x E { .. .;.m.b.$ 6.y.g g g f ",
"g f y.y.p.# ] ! l x b x x x b x x x x D |  .;.m.z.% 7.f g f f y.",
"g g y.y.p.# ] ! z C 7 V c y 8 Z x x x b |  .;.m.z.% 7.y.y.f d d ",
"g g y.y.p.# ] Q z J 6 N M e 6 A x x x b |  .;.m.z.% 7.y.y.g f g ",
"g y.f f p.O } / v C 9 B c J 9 Z x x b Q ..%.:.m.c.% 7.y.y.y.y.g ",
"y.y.g y.t.< ` #.) x v v S v v b S x W #...k.v.c.h.2 w.y.y.y.y.y.",
"y.y.f g y.i.& G ..{ { { { { { { { { {  . .<.m.s.; t.y.f d y.y.y.",
"y.f d f y.y.* Y >. ............... .%.<.:.l.M.s.. u.y.y.y.y.g g ",
"y.y.g y.g f s 4.o.=.=.=.=.=.=.=.=.=.,.m.m.m.d.4.s u.y.y.y.y.g g ",
"y.y.g f f d g a t j.g.g.g.g.g.g.g.g.g.f.f.j.I w y.y.y.y.y.g g g ",
"y.g g f g f f g 0.  @ @ @ @ @ @ @ @ @ @ @   3.y.y.y.y.y.y.y.y.f ",
"y.g y.f f y.f g y.w.e.t.t.w.w.e.r.t.t.t.e.e.i.y.y.y.y.y.y.y.f f ",
"g g y.g y.y.g g f f f y.g f f f y.d f d d g y.y.f y.y.y.d d d d ",
"g g y.y.y.y.y.g y.g g f f f f g d f d f y.d d d d d g d d d d d "
};
