/* XPM */
static char *f38bec3c4bdf4d9ec98b20e2d9bb2d89EPB1WC83IjiORyFY[] = {
/* columns rows colors chars-per-pixel */
"32 32 6 1 ",
"  c #95DF7B",
". c #96DF7C",
"X c #97E17D",
"o c #99E37F",
"O c #9AE380",
"+ c #9AE480",
/* pixels */
"XXXo+oo+++++++++++++++ooo+++++++",
"XXX+oX+++ooo+++++o+++oo++++++o++",
".ooXX+++XoX++oXXXo+X+++++++++Xo+",
"XXoXX++Xoo+++XX...+++++++oo+ooo+",
"XXo+o++o+o+ooXXXo++++++++++X++++",
"oo++ooooo+o+o++++++++o+o++oX+oo+",
"+o+ooX++++++Xo++++ooXooo+++o+oo+",
"XX+ooo++++++Xo+++ooX+oo++ooX+oXo",
"..+oo+++++++XX+o+oXXXXo++ooXooXo",
"..oo+++++++XXooo+XooXo+++o+++oo+",
"..+oX+++++X..o+o.X++oo++++++ooo+",
"  +o++++++..Xo+XX++Ooo++oX+Xoo++",
" +o+++++++oX++XXo++Oo++  oooo++X",
"++++++++++X+ooX +++oo+  .oXo++oo",
".+++oooo++ooXXXo++ooXXX o+++++oo",
"o.XoXXXo++oooo++oooooooX++++++++",
"oX oXXXX++oXooooooo+oXXXXoo+++++",
"oX.X+oX++oXXXooooooooX. XoXoo++o",
"oXo+++++ooXooXo++++ooX .oXX+oooX",
"oX++++oooXXooXX++++++XoXX++XoXX+",
"oo+++ooooXoooo++++++++oX+++++X..",
"o+++ooXooX+++++++++ooXXo+++++oXo",
"o+XX++oXo++ooo+++++oooo++++++++o",
"++o+++oX+++oo+++++++oo++++++++++",
"++Xo++X.X++Ooo+++++ooo+++o+X.+++",
"+X.X++X.o++o+oXXXoo++++++o++++oo",
"++o+oX .+++++oXXXXX+++++++++++oo",
"++oXX oo++++oX..Xo+++++++++++ooo",
"+ooXoXXoo+++oXX X++++++++++++++X",
"Oo+XX+XoXoo++. Xo+++oo++++++++XX",
"oo+o++ooXXX+oXXX+.X..o++X+++.. .",
"oo+++++o+ooXXXXo.X X+  .  o..   "
};
