/* XPM */
static char *_7a59e5d585047a98c87aa5114ed2d840hcqowalpqGVXmo2[] = {
/* columns rows colors chars-per-pixel */
"32 32 171 2 ",
"   c #4F1407",
".  c #511606",
"X  c #521A09",
"o  c #5B2A16",
"O  c #602716",
"+  c #62291C",
"@  c #623F10",
"#  c #673924",
"$  c #683826",
"%  c #653A29",
"&  c #6F3C39",
"*  c #665D0D",
"=  c #634211",
"-  c #6C5E14",
";  c #6E5D1C",
":  c #705E1F",
">  c #6B6D0E",
",  c #6D730D",
"<  c #6A6511",
"1  c #6C6218",
"2  c #706E10",
"3  c #6D7615",
"4  c #717610",
"5  c #684723",
"6  c #6A4F26",
"7  c #72432E",
"8  c #6E5920",
"9  c #6E502A",
"0  c #705E20",
"q  c #745827",
"w  c #75542E",
"e  c #694538",
"r  c #714634",
"t  c #774E34",
"y  c #70463E",
"u  c #74493B",
"i  c #68543C",
"p  c #735633",
"a  c #765D31",
"s  c #78563A",
"d  c #7C5C3D",
"f  c #7A6228",
"g  c #71692F",
"h  c #6F7E20",
"j  c #7A7C37",
"k  c #774D44",
"l  c #6B5747",
"z  c #6B5944",
"x  c #6D5F4D",
"c  c #715341",
"v  c #785542",
"b  c #765749",
"n  c #765849",
"m  c #7C5B4A",
"M  c #6F634F",
"N  c #7D6545",
"B  c #7D6F42",
"V  c #7C634D",
"C  c #7F7148",
"Z  c #7D7948",
"A  c #6D6553",
"S  c #7D6754",
"D  c #736956",
"F  c #7E6A57",
"G  c #756C5A",
"H  c #7C6D5C",
"J  c #7B705E",
"K  c #767261",
"L  c #7C7361",
"P  c #787869",
"I  c #806B29",
"U  c #837A28",
"Y  c #82663D",
"T  c #806C38",
"R  c #80604B",
"E  c #846753",
"W  c #856954",
"Q  c #866E5A",
"!  c #8C7A56",
"~  c #8E785F",
"^  c #8D7760",
"/  c #837A66",
"(  c #8D7B65",
")  c #857D6C",
"_  c #8D7E6A",
"`  c #927E60",
"'  c #887F70",
"]  c #778019",
"[  c #738521",
"{  c #7D8634",
"}  c #7D8935",
"|  c #7B803E",
" . c #86801D",
".. c #888625",
"X. c #83822A",
"o. c #8B9C33",
"O. c #81A53F",
"+. c #92B233",
"@. c #849F47",
"#. c #829B4C",
"$. c #858B56",
"%. c #86AC44",
"&. c #89A845",
"*. c #8CAF44",
"=. c #86A44E",
"-. c #92BB43",
";. c #8CA453",
":. c #8CAD52",
">. c #8EBB53",
",. c #8FB75E",
"<. c #8BBD58",
"1. c #90B251",
"2. c #8B826E",
"3. c #93826C",
"4. c #8C8473",
"5. c #8D8877",
"6. c #8E8C7D",
"7. c #918671",
"8. c #928974",
"9. c #948D7B",
"0. c #998C7B",
"q. c #959077",
"w. c #96917D",
"e. c #99937E",
"r. c #95C156",
"t. c #95C658",
"y. c #8FC762",
"u. c #93C260",
"i. c #92CA66",
"p. c #92CC6D",
"a. c #96D166",
"s. c #95D36C",
"d. c #96D672",
"f. c #96DA75",
"g. c #98DB75",
"h. c #96DF7B",
"j. c #99DE79",
"k. c #97E17D",
"l. c #99E27E",
"z. c #978F81",
"x. c #959383",
"c. c #9B9483",
"v. c #9D9986",
"b. c #9F9888",
"n. c #A29B87",
"m. c #A39D8B",
"M. c #A89F8E",
"N. c #A59E91",
"B. c #A6A28D",
"V. c #A8A28E",
"C. c #A7A392",
"Z. c #AAA592",
"A. c #ADA692",
"S. c #ABA594",
"D. c #ABA695",
"F. c #ACA694",
"G. c #ACA893",
"H. c #ADA994",
"J. c #ADA899",
"K. c #B2AB9D",
"L. c #B3AC9F",
"P. c #B5B09D",
"I. c #B4AEA3",
"U. c #B6B2A5",
"Y. c #B8B3A5",
"T. c #B6B3A9",
"R. c #B9B4AB",
"E. c #BCB9AF",
"W. c #BFBAB0",
"Q. c #9AE480",
"!. c #CCCDC4",
/* pixels */
"k.k.k.l.Q.l.l.Q.Q.Q.Q.Q.Q.Q.Q.Q.Q.Q.Q.Q.Q.Q.l.l.l.Q.Q.Q.Q.Q.Q.Q.",
"k.k.k.Q.l.k.Q.Q.Q.l.l.l.Q.Q.Q.Q.Q.l.Q.Q.Q.l.l.Q.Q.Q.Q.Q.Q.l.Q.Q.",
"h.l.l.k.k.Q.Q.Q.k.l.k.Q.Q.l.h.f.f.f.l.h.l.l.l.l.Q.Q.Q.Q.Q.k.l.Q.",
"k.k.l.k.k.Q.Q.k.l.j.Q.l.l.f.o.s d N B C $.d.j.j.Q.l.l.Q.l.l.l.Q.",
"k.k.l.Q.l.Q.Q.l.j.l.g.d.i.o.U E E W W W Q } i.l.l.Q.Q.k.Q.Q.Q.Q.",
"l.l.Q.Q.l.l.l.l.l.t.t u u r R B.n.n.m.B.B.m f s.k.l.l.k.Q.l.l.Q.",
"Q.l.Q.l.l.k.l.l.1.I ~ ( ( ^ 3.m.n.n.n.n.n.7.! ;.l.Q.l.l.Q.l.l.Q.",
"k.k.Q.l.l.l.Q.+.f k n.B.B.C.B.m.n.n.n.n.n.C.0.V j.f.h.k.Q.l.k.l.",
"h.h.Q.l.l.j.r.q ` m.C.Z.Z.V.m.m.m.m.n.n.b.v._ u u.l.j.h.l.l.k.l.",
"h.h.l.l.d.r...u 0.U.D.F.A.V.V.V.m.m.B.n.n.v._ v X.s.l.j.j.l.l.Q.",
"h.h.l.j.-.f d 2.m.L.D.D.F.D.A.Z.V.m.B.n.n.e.0.w.m a a.l.k.l.l.Q.",
"h.h.l.d. .Y W 8.M.L.D.D.D.D.D.D.C.m.n.B.B.e.9.x.Q N U d.k.l.Q.Q.",
"h.j.f.&.7 ( 9.2.m.L.F.D.D.F.F.H.D.Z.n.F.P.c.9.0.e.8.y ,.h.j.Q.k.",
"j.j.:.T Q 2.0.m.C.F.A.A.D.F.H.H.Z.Z.L.D.n.c.w.9.e.7.u =.l.j.l.l.",
"f.j.p V w.4.c.T.J.V.Z.F.D.D.F.G.Z.F.W.D.9.e.w.9.w.7.u j l.l.l.l.",
"h.d.w V q.8.e.I.J.V.Z.Z.Z.A.A.V.Y.R.n.c.e.e.w.w.9._ u 0 y.l.Q.Q.",
"h.s.w V 8.2.0.I.J.V.Z.Z.F.F.A.F.Y.T.e.9.e.w.0.9.8./ r : %.l.Q.Q.",
"l.f.Z n ) L 4.R.Y.Y.Y.I.K.K.U.!.C.7.4.8.c.c.9.4.9.4.& 8 O.Q.Q.l.",
"l.f.d.B V H ) N.N.m.b.C.Y.Y.E.E.c.2.2.4.9.9.5.4./ F 9 1 %.l.l.k.",
"l.h.j.p.$ J ) L L L A x.!.!.!.c.7.2.2.2.2.2.5.x.k # , , p.k.k.Q.",
"l.l.g.g.:.p c / L J G ) x.0.9.v.4.) 2.2.) 4./ b q - > ] j.k.h.h.",
"l.Q.l.s.g.| % ) L G G G D M J v.4./ ) ) ' 6.H + - , h >.l.l.k.l.",
"l.Q.k.f.s.d.:.o l L K G G G G G ) 8.4.4.4.y 5 < > , s.l.Q.Q.Q.l.",
"Q.Q.l.Q.g.j.l.g i G D D G G D x ) x./ ) / # = , [ <.l.Q.Q.Q.Q.Q.",
"Q.Q.k.l.Q.l.f.h.#.X . e P K K A 6.z.o o O * 4 *.s.f.Q.k.h.Q.Q.Q.",
"Q.k.h.k.Q.Q.k.f.l.p.; 6 l z z i S S = @ @ 2 %.g.j.l.Q.Q.Q.Q.l.l.",
"Q.Q.l.Q.l.k.h.h.l.l.l.=.o X X X   X > > 3 >.s.l.Q.Q.Q.Q.Q.Q.l.l.",
"Q.Q.l.k.k.h.l.l.Q.Q.l.l.p.@.} { { } *.>.i.s.l.Q.Q.Q.Q.Q.Q.l.l.l.",
"Q.l.l.k.l.k.k.l.l.Q.Q.Q.l.k.h.h.k.Q.l.d.f.Q.Q.Q.Q.Q.Q.Q.Q.Q.Q.k.",
"Q.l.Q.k.k.Q.k.l.k.l.l.Q.Q.h.h.k.l.Q.Q.Q.l.l.Q.Q.Q.Q.Q.Q.Q.Q.k.k.",
"l.l.Q.l.Q.Q.l.l.k.k.k.Q.l.k.k.k.Q.h.k.h.h.l.Q.Q.k.Q.Q.Q.h.h.h.h.",
"l.l.Q.Q.Q.Q.Q.l.Q.l.l.k.k.k.k.l.h.k.h.k.Q.h.h.h.h.h.l.h.h.h.h.h."
};
