/* XPM */
static char *_be2f94f47ba45d29d70e71b91e6c089sp5LY8Zhm0LXAXha[] = {
/* columns rows colors chars-per-pixel */
"32 32 193 2 ",
"   c #000001",
".  c #0C0C0C",
"X  c #0B0C13",
"o  c #0F1E17",
"O  c #111115",
"+  c #1E1013",
"@  c #2C0203",
"#  c #12261B",
"$  c #1A322C",
"%  c #3E392C",
"&  c #540000",
"*  c #5D0001",
"=  c #5B0609",
"-  c #50180E",
";  c #501619",
":  c #7D0001",
">  c #790908",
",  c #680413",
"<  c #7D0410",
"1  c #3B4126",
"2  c #3F5D34",
"3  c #594831",
"4  c #5A5933",
"5  c #7B4B30",
"6  c #7A5F35",
"7  c #436337",
"8  c #676C3E",
"9  c #2D715B",
"0  c #347152",
"q  c #3D7C61",
"w  c #5B6E49",
"e  c #4B7147",
"r  c #587D4C",
"t  c #696841",
"y  c #6F7648",
"u  c #810000",
"i  c #8E0503",
"p  c #950000",
"a  c #9B0200",
"s  c #81110B",
"d  c #8F0313",
"f  c #920213",
"g  c #990015",
"h  c #9D1316",
"j  c #A90200",
"k  c #B20005",
"l  c #BC0104",
"z  c #AD1B0F",
"x  c #B40013",
"c  c #AF141D",
"v  c #BB1716",
"b  c #A72012",
"n  c #B9261C",
"m  c #AF1320",
"M  c #BF3820",
"N  c #C70302",
"B  c #C10008",
"V  c #D50319",
"C  c #CE1E19",
"Z  c #D51C19",
"A  c #F1130C",
"S  c #DE341E",
"D  c #EF3E00",
"F  c #EA350F",
"G  c #C7072C",
"H  c #D31725",
"J  c #D1152A",
"K  c #E11435",
"L  c #CF2F27",
"P  c #D52626",
"I  c #C03A21",
"U  c #CD2035",
"Y  c #DB2138",
"T  c #F82926",
"R  c #EA322A",
"E  c #E52835",
"W  c #F32838",
"Q  c #E83B35",
"!  c #FF3336",
"~  c #FE3B36",
"^  c #F33B3B",
"/  c #925608",
"(  c #B05500",
")  c #926708",
"_  c #947B0B",
"`  c #8C6A17",
"'  c #81502D",
"]  c #A8542F",
"[  c #CB5405",
"{  c #F34C18",
"}  c #FF7618",
"|  c #E44D24",
" . c #FD4E2B",
".. c #EE5B26",
"X. c #F95E29",
"o. c #FE4233",
"O. c #FF4C36",
"+. c #CC6327",
"@. c #CE652A",
"#. c #FC6525",
"$. c #FF7E20",
"%. c #FC3345",
"&. c #9B7A45",
"*. c #FF5041",
"=. c #5F8D4F",
"-. c #638E59",
";. c #6B9F5F",
":. c #4B8E66",
">. c #55A173",
",. c #65A767",
"<. c #72AF67",
"1. c #7CB569",
"2. c #6FB874",
"3. c #7BC173",
"4. c #93800F",
"5. c #95891B",
"6. c #DE961E",
"7. c #FA850A",
"8. c #FE8C0B",
"9. c #FE9302",
"0. c #FE9D01",
"q. c #FE920C",
"w. c #FF8912",
"e. c #FF8B1B",
"r. c #FF9519",
"t. c #FFA301",
"y. c #FFAB01",
"u. c #FEB401",
"i. c #FEBC01",
"p. c #FFBC0A",
"a. c #FCBE14",
"s. c #D88632",
"d. c #E29E31",
"f. c #EEBE23",
"g. c #FFB42D",
"h. c #FDC405",
"j. c #FFCA02",
"k. c #FDC40C",
"l. c #FDCA08",
"z. c #FFD603",
"x. c #FDCB13",
"c. c #FDCF18",
"v. c #FED71C",
"b. c #FFE914",
"n. c #FEE71E",
"m. c #FFFF19",
"M. c #FDD723",
"N. c #FFCE39",
"B. c #FEEA28",
"V. c #FFF127",
"C. c #FFFF2B",
"Z. c #FEE937",
"A. c #FEEA3B",
"S. c #FFFF3D",
"D. c #82B469",
"F. c #EFBE5A",
"G. c #8CD579",
"H. c #90D679",
"J. c #95DF7C",
"K. c #97E17D",
"L. c #98E27E",
"P. c #FEC041",
"I. c #FED847",
"U. c #FEEF42",
"Y. c #FEF144",
"T. c #FFFF43",
"R. c #FEF448",
"E. c #FEFF4A",
"W. c #FFFF5C",
"Q. c #FEDA69",
"!. c #FFCC72",
"~. c #F8D973",
"^. c #FEF577",
"/. c #5CBA86",
"(. c #72CB88",
"). c #7FD281",
"_. c #87D781",
"`. c #8DDE85",
"'. c #91DF81",
"]. c #93E283",
"[. c #9AE480",
"{. c #FEED86",
"}. c #FFFF89",
"|. c #FFFF92",
" X c #FEF5AE",
".X c #FEF7C8",
"XX c #FFFCCB",
"oX c #FFFFD0",
"OX c #FFFDDA",
"+X c #FFFFE1",
"@X c #FFFCED",
"#X c #F9F9F6",
"$X c #FEFEFE",
/* pixels */
"K.K.K.L.[.L.L.[.[.[.[.[.[.[.[.[.[.[.[.[.[.[.L.L.L.[.[.[.[.[.[.[.",
"K.K.K.[.L.K.[.[.[.L.L.L.[.[.1 $ [.K.[.[.[.L.L.[.[.[.[.[.[.L.[.[.",
"J.L.L.K.K.[.[.[.K.L.K.[.[.K.: u 2 K.[.K.[.[.[.[.[.[.[.[.[.K.L.[.",
"K.K.L.K.K.[.[.K.L.L.[.[.[.-.v P > 8 [.[.[.[.[.[.[.L.L.[.L.L.L.[.",
"K.K.L.[.L.[.[.L.[.L.].L.+ l P c T i =.[.L.[.[.[.[.[.[.K.[.[.[.[.",
"L.L.[.[.L.L.L.L.L.[.L./.& Z m L J v & K.[.L.[.L.[.[.L.K.[.L.L.[.",
"[.L.[.L.L.K.[.[.[.[.(.o C Y L r.| G J = K.L.L.L.[.[.[.L.[.L.L.[.",
"K.K.[.L.L.L.[.[.].].<.& E ^ q.y.9...#.R * 4 L.[.[.L.L.K.[.L.K.K.",
"J.J.[.L.L.[.[.[.[.[.3 V ^ 8.t.t.0.t.u.w.W B 4 [.[.L.L.K.L.L.K.K.",
"J.J.L.L.[.[.[.t y D.V Q 9.t.t.l.u.9.9.y.w.! i :.[.L.[.[.[.L.L.[.",
"J.J.[.L.K.[.r A s * ~ 8.u.i.h.h.h.p.y.9.t.~ < e [.[.[.[.L.L.L.[.",
"J.J.[.L.[.].1 T U L 8.0.y.l.i.k.i.h.h.y.9.| H = L.K.[.K.L.L.[.[.",
"J.[.L.[.[.,.& Y ^ 8.y.y.h.i.k.A.c.u.h.h.t.8.! - J.2.: L.L.[.[.K.",
"[.[.[.[._.# x E 8.u.h.l.i.k.A.R.U.x.i.h.i.7.W h ,.w C ; [.[.L.K.",
"J.[.[.[.1.: Q q.t.u.l.i.k.A.Y.Z.U.Y.x.i.l.0...%.a C ~ a L.[.L.K.",
"L.J.K.L.<.l X.t.t.h.i.k.Z.Y.Z.Z.Z.U.Y.k.i.i.y.#.%.P p $ [.[.[.[.",
"L.K.J.L.,.u o.0.i.l.u.k.Y.A.Z.Z.Z.Z.Y.M.h.i.y.} J @ 9 [.].[.[.[.",
"L.K.J.K.D.v #.y.l.i.i.v.A.A.Z.Z.Z.Z.A.U.x.u.u.#.G 7 ).L.L.[.[.K.",
"L.K.L.H.] *.t.i.h.u.i.B.A.A.Z.Z.Z.A.A.B.h.i.i.w.Q , =._.L.L.L.K.",
"L.K.[.G.1.n t.i.a.@X@XOX^.Z.Z.Z.Z.A.^.$X$X$XP.t.#.K 6 H.L.K.K.[.",
"L.L.L.].,.: { t..X$X$X$XXXB.Z.Z.Z.n..X$X$X$X$Xp.7.S b [.[.K.J.J.",
"L.[.[.K.5 H F F.$X$X    OXV.Z.Z.Z.b.oXX   #X$X{.y. .z [.[.L.K.K.",
"L.[.K.G.&.%.D !.$X$X. X +XV.A.A.A.b.XXO O #X$X Xt. .' H.[.[.[.K.",
"[.[.L.'.8 Z { g.OX$X$X$X^.C.S.T.T.C.W.$X$X$X$XI.u.S e _.[.[.[.[.",
"[.[.K.].3.p O.u.v.Q.}.~.[ @.+.+.+.@.[ F.|.Q.N.j.i.F 1.K.J.[.[.[.",
"[.K.J.K.[.w N $.j.h.m.f.g f f f f d g 6.m.j.z.r.O.N ;.[.[.[.L.[.",
"[.[.L.[.L.K.% j Z e.C.E.d.n M I I n s.E.c.k.7.k l % `.[.[.[.L.K.",
"[.[.L.K.K.J.'.q 3 p ( C.E.T.T.T.T.E.S.C.z.j , q 0 [.[.[.[.L.L.K.",
"[.L.L.K.L.K.K.K.L.>.q ` 4._ _ _ _ 5.) / ` :.).[.[.[.[.[.[.[.[.K.",
"[.L.[.K.K.[.K.L.K.L.].[.[.J.J.K.L.[.[.[.L.L.[.[.[.[.[.[.[.[.K.K.",
"L.L.[.L.[.[.L.L.K.K.K.[.K.K.K.K.[.J.K.J.J.L.[.[.K.[.[.[.J.J.J.J.",
"L.L.[.[.[.[.[.L.[.L.L.K.K.K.K.L.J.K.J.K.[.J.J.J.J.J.L.J.J.J.J.J."
};
